<svg width="41" height="32" viewBox="0 0 41 32" fill="none" xmlns="http://www.w3.org/2000/svg">
<rect x="1" y="1" width="39" height="30" rx="5" fill="#BD5D05"/>
<path d="M6.62 20.06V17.88L13.22 9H16.62L10.16 17.88L8.58 17.42H19.6V20.06H6.62ZM14.16 23V20.06L14.26 17.42V14.8H17.32V23H14.16ZM24.3491 19.8L24.1691 16.06L30.8691 9H34.4691L28.4291 15.5L26.6291 17.42L24.3491 19.8ZM21.4491 23V9H24.6691V23H21.4491ZM31.0291 23L26.0491 16.9L28.1691 14.6L34.8091 23H31.0291Z" fill="#060606"/>
<rect x="1" y="1" width="39" height="30" rx="5" stroke="#BD5D05" stroke-width="2"/>
</svg>
