<svg width="32" height="25" viewBox="0 0 32 25" fill="none" xmlns="http://www.w3.org/2000/svg">
<path d="M31.2005 6.33218C30.8863 6.07412 30.5047 5.90815 30.0993 5.85321C29.6938 5.79827 29.2809 5.85657 28.9075 6.02146L21.9598 9.06115L17.9229 1.90098C17.73 1.5667 17.4505 1.28869 17.1128 1.09529C16.7751 0.901892 16.3914 0.800003 16.0007 0.800003C15.6099 0.800003 15.2262 0.901892 14.8885 1.09529C14.5508 1.28869 14.2713 1.5667 14.0784 1.90098L10.0415 9.06115L3.09384 6.02146C2.71968 5.85681 2.30618 5.79843 1.90007 5.85292C1.49396 5.90741 1.11145 6.07259 0.795759 6.32979C0.480073 6.58699 0.243808 6.92595 0.113674 7.30836C-0.0164598 7.69076 -0.0352734 8.10136 0.0593602 8.49374L3.54695 23.1248C3.61363 23.4081 3.73807 23.675 3.91273 23.9096C4.08738 24.1441 4.30861 24.3413 4.56302 24.4893C4.90744 24.6921 5.30124 24.7995 5.70266 24.8C5.89779 24.7996 6.09191 24.7724 6.27935 24.7189C12.6364 22.9897 19.3512 22.9897 25.7082 24.7189C26.2887 24.8691 26.9059 24.7865 27.4246 24.4893C27.6805 24.3432 27.903 24.1466 28.0778 23.9117C28.2527 23.6769 28.3762 23.4089 28.4406 23.1248L31.9419 8.49374C32.0355 8.10126 32.0157 7.69085 31.8846 7.30888C31.7536 6.92691 31.5166 6.5886 31.2005 6.33218Z" fill="#DB6900"/>
</svg>
