<svg width="60" height="32" viewBox="0 0 60 32" fill="none" xmlns="http://www.w3.org/2000/svg">
<path d="M7.66 23V9H14.02C15.54 9 16.88 9.29333 18.04 9.88C19.2 10.4533 20.1067 11.26 20.76 12.3C21.4133 13.34 21.74 14.5733 21.74 16C21.74 17.4133 21.4133 18.6467 20.76 19.7C20.1067 20.74 19.2 21.5533 18.04 22.14C16.88 22.7133 15.54 23 14.02 23H7.66ZM10.9 20.34H13.86C14.7933 20.34 15.6 20.1667 16.28 19.82C16.9733 19.46 17.5067 18.9533 17.88 18.3C18.2667 17.6467 18.46 16.88 18.46 16C18.46 15.1067 18.2667 14.34 17.88 13.7C17.5067 13.0467 16.9733 12.5467 16.28 12.2C15.6 11.84 14.7933 11.66 13.86 11.66H10.9V20.34ZM30.4034 23.24C28.4168 23.24 26.8634 22.6867 25.7434 21.58C24.6234 20.4733 24.0634 18.8933 24.0634 16.84V9H27.3034V16.72C27.3034 18.0533 27.5768 19.0133 28.1234 19.6C28.6701 20.1867 29.4368 20.48 30.4234 20.48C31.4101 20.48 32.1768 20.1867 32.7234 19.6C33.2701 19.0133 33.5434 18.0533 33.5434 16.72V9H36.7434V16.84C36.7434 18.8933 36.1834 20.4733 35.0634 21.58C33.9434 22.6867 32.3901 23.24 30.4034 23.24ZM39.9452 23V9H46.7852C48.5452 9 49.8652 9.33333 50.7452 10C51.6385 10.6667 52.0852 11.5467 52.0852 12.64C52.0852 13.3733 51.9052 14.0133 51.5452 14.56C51.1852 15.0933 50.6918 15.5067 50.0652 15.8C49.4385 16.0933 48.7185 16.24 47.9052 16.24L48.2852 15.42C49.1652 15.42 49.9452 15.5667 50.6252 15.86C51.3052 16.14 51.8318 16.56 52.2052 17.12C52.5918 17.68 52.7852 18.3667 52.7852 19.18C52.7852 20.38 52.3118 21.32 51.3652 22C50.4185 22.6667 49.0252 23 47.1852 23H39.9452ZM43.1652 20.56H46.9452C47.7852 20.56 48.4185 20.4267 48.8452 20.16C49.2852 19.88 49.5052 19.44 49.5052 18.84C49.5052 18.2533 49.2852 17.82 48.8452 17.54C48.4185 17.2467 47.7852 17.1 46.9452 17.1H42.9252V14.74H46.3852C47.1718 14.74 47.7718 14.6067 48.1852 14.34C48.6118 14.06 48.8252 13.64 48.8252 13.08C48.8252 12.5333 48.6118 12.1267 48.1852 11.86C47.7718 11.58 47.1718 11.44 46.3852 11.44H43.1652V20.56Z" fill="white"/>
<rect x="1" y="1" width="58" height="30" rx="5" stroke="#D9D9D9" stroke-width="2"/>
</svg>
