<svg width="68" height="53" viewBox="0 0 68 53" fill="none" xmlns="http://www.w3.org/2000/svg">
<path d="M34.9949 1.14384C34.5749 0.783843 34.0049 0.663845 33.4649 0.783843L26.6849 2.40384L19.9049 0.813845V0.753844H15.6149V4.32384H17.6849V21.7838H21.2549V4.80385L24.8849 5.64385V17.5538H28.4549V5.64385L32.0849 4.80385V21.7838H35.6549V2.52384C35.6549 1.98384 35.4149 1.47384 34.9949 1.14384Z" fill="url(#paint0_linear_20_205)"/>
<path d="M43.1005 18.0038V16.7738H50.6605V11.1638H51.8605V7.59384H43.1005V5.88384H39.5305V7.59384H38.4205V11.1638H39.5305V13.2038H38.4805V16.7738H39.5605V20.8538L51.2605 23.5238L52.0705 20.0438L43.1005 18.0038ZM43.1005 11.1638H47.0905V13.2038H43.1005V11.1638ZM27.0898 47.0038V45.7738H34.6498V40.1638H35.8498V36.5938H27.0898V34.8838H23.5198V36.5938H22.4098V40.1638H23.5198V42.2038H22.4698V45.7738H23.5498V49.8538L35.2498 52.5238L36.0598 49.0438L27.0898 47.0038ZM27.0898 40.1638H31.0798V42.2038H27.0898V40.1638ZM42.7343 47.0038V45.7738H50.2943V40.1638H51.4943V36.5938H42.7343V34.8838H39.1643V36.5938H38.0543V40.1638H39.1643V42.2038H38.1143V45.7738H39.1943V49.8538L50.8943 52.5238L51.7043 49.0438L42.7343 47.0038ZM42.7343 40.1638H46.7243V42.2038H42.7343V40.1638ZM58.7689 36.5038V29.6938H55.1989V47.6638L52.8589 49.1338L54.7489 52.1638L56.9989 50.7538L60.8689 50.7238C64.6789 50.7238 67.7689 47.6338 67.7989 43.8238L67.8889 36.5338L58.7689 36.5038ZM64.2289 43.7938C64.2289 45.6538 62.7289 47.1538 60.8689 47.1838H58.7689V40.0738L64.2589 40.1038L64.2289 43.7938Z" fill="white"/>
<path d="M18.5949 29.7538H15.0249V47.0338L11.3949 46.1638V34.2538H7.82488V46.1638L4.16488 47.0338L4.19488 29.7538H0.624883V49.2838C0.624883 50.2738 1.40488 51.0838 2.39488 51.0838C2.54488 51.0838 2.66488 51.0538 2.81488 51.0238L9.59488 49.4038L16.4049 51.0238H20.6949V47.4538H18.5949V29.7538Z" fill="url(#paint1_linear_20_205)"/>
<defs>
<linearGradient id="paint0_linear_20_205" x1="24" y1="9.75384" x2="34" y2="21.7538" gradientUnits="userSpaceOnUse">
<stop stop-color="#9747FF"/>
<stop offset="1" stop-color="#1DA1F2"/>
</linearGradient>
<linearGradient id="paint1_linear_20_205" x1="2" y1="27.7538" x2="19" y2="48.2538" gradientUnits="userSpaceOnUse">
<stop stop-color="#C93677"/>
<stop offset="1" stop-color="#154587"/>
</linearGradient>
</defs>
</svg>
