<svg width="31" height="32" viewBox="0 0 31 32" fill="none" xmlns="http://www.w3.org/2000/svg">
<path d="M9.66 23V9H15.72C16.9733 9 18.0533 9.20667 18.96 9.62C19.8667 10.02 20.5667 10.6 21.06 11.36C21.5533 12.12 21.8 13.0267 21.8 14.08C21.8 15.12 21.5533 16.02 21.06 16.78C20.5667 17.5267 19.8667 18.1 18.96 18.5C18.0533 18.9 16.9733 19.1 15.72 19.1H11.46L12.9 17.68V23H9.66ZM18.56 23L15.06 17.92H18.52L22.06 23H18.56ZM12.9 18.04L11.46 16.52H15.54C16.54 16.52 17.2867 16.3067 17.78 15.88C18.2733 15.44 18.52 14.84 18.52 14.08C18.52 13.3067 18.2733 12.7067 17.78 12.28C17.2867 11.8533 16.54 11.64 15.54 11.64H11.46L12.9 10.1V18.04Z" fill="white"/>
<rect x="1" y="1" width="29" height="30" rx="4" stroke="#D9D9D9" stroke-width="2"/>
</svg>
