<svg width="60" height="32" viewBox="0 0 60 32" fill="none" xmlns="http://www.w3.org/2000/svg">
<path d="M14.26 23.24C13.14 23.24 12.0667 23.0933 11.04 22.8C10.0133 22.4933 9.18667 22.1 8.56 21.62L9.66 19.18C10.26 19.6067 10.9667 19.96 11.78 20.24C12.6067 20.5067 13.44 20.64 14.28 20.64C14.92 20.64 15.4333 20.58 15.82 20.46C16.22 20.3267 16.5133 20.1467 16.7 19.92C16.8867 19.6933 16.98 19.4333 16.98 19.14C16.98 18.7667 16.8333 18.4733 16.54 18.26C16.2467 18.0333 15.86 17.8533 15.38 17.72C14.9 17.5733 14.3667 17.44 13.78 17.32C13.2067 17.1867 12.6267 17.0267 12.04 16.84C11.4667 16.6533 10.94 16.4133 10.46 16.12C9.98 15.8267 9.58667 15.44 9.28 14.96C8.98667 14.48 8.84 13.8667 8.84 13.12C8.84 12.32 9.05333 11.5933 9.48 10.94C9.92 10.2733 10.5733 9.74667 11.44 9.36C12.32 8.96 13.42 8.76 14.74 8.76C15.62 8.76 16.4867 8.86667 17.34 9.08C18.1933 9.28 18.9467 9.58667 19.6 10L18.6 12.46C17.9467 12.0867 17.2933 11.8133 16.64 11.64C15.9867 11.4533 15.3467 11.36 14.72 11.36C14.0933 11.36 13.58 11.4333 13.18 11.58C12.78 11.7267 12.4933 11.92 12.32 12.16C12.1467 12.3867 12.06 12.6533 12.06 12.96C12.06 13.32 12.2067 13.6133 12.5 13.84C12.7933 14.0533 13.18 14.2267 13.66 14.36C14.14 14.4933 14.6667 14.6267 15.24 14.76C15.8267 14.8933 16.4067 15.0467 16.98 15.22C17.5667 15.3933 18.1 15.6267 18.58 15.92C19.06 16.2133 19.4467 16.6 19.74 17.08C20.0467 17.56 20.2 18.1667 20.2 18.9C20.2 19.6867 19.98 20.4067 19.54 21.06C19.1 21.7133 18.44 22.24 17.56 22.64C16.6933 23.04 15.5933 23.24 14.26 23.24ZM28.6339 23.24C26.6472 23.24 25.0939 22.6867 23.9739 21.58C22.8539 20.4733 22.2939 18.8933 22.2939 16.84V9H25.5339V16.72C25.5339 18.0533 25.8072 19.0133 26.3539 19.6C26.9006 20.1867 27.6672 20.48 28.6539 20.48C29.6406 20.48 30.4072 20.1867 30.9539 19.6C31.5006 19.0133 31.7739 18.0533 31.7739 16.72V9H34.9739V16.84C34.9739 18.8933 34.4139 20.4733 33.2939 21.58C32.1739 22.6867 30.6206 23.24 28.6339 23.24ZM38.1756 23V9H45.0156C46.7756 9 48.0956 9.33333 48.9756 10C49.869 10.6667 50.3156 11.5467 50.3156 12.64C50.3156 13.3733 50.1356 14.0133 49.7756 14.56C49.4156 15.0933 48.9223 15.5067 48.2956 15.8C47.669 16.0933 46.949 16.24 46.1356 16.24L46.5156 15.42C47.3956 15.42 48.1756 15.5667 48.8556 15.86C49.5356 16.14 50.0623 16.56 50.4356 17.12C50.8223 17.68 51.0156 18.3667 51.0156 19.18C51.0156 20.38 50.5423 21.32 49.5956 22C48.649 22.6667 47.2556 23 45.4156 23H38.1756ZM41.3956 20.56H45.1756C46.0156 20.56 46.649 20.4267 47.0756 20.16C47.5156 19.88 47.7356 19.44 47.7356 18.84C47.7356 18.2533 47.5156 17.82 47.0756 17.54C46.649 17.2467 46.0156 17.1 45.1756 17.1H41.1556V14.74H44.6156C45.4023 14.74 46.0023 14.6067 46.4156 14.34C46.8423 14.06 47.0556 13.64 47.0556 13.08C47.0556 12.5333 46.8423 12.1267 46.4156 11.86C46.0023 11.58 45.4023 11.44 44.6156 11.44H41.3956V20.56Z" fill="white"/>
<rect x="1" y="1" width="58" height="30" rx="5" stroke="#D9D9D9" stroke-width="2"/>
</svg>
